<svg width="24" height="24" viewBox="0 0 24 24" fill="none" xmlns="http://www.w3.org/2000/svg">
<path d="M20.6101 19.1903C21.2368 18.3502 21.6669 17.3802 21.8686 16.3517C22.0703 15.3232 22.0385 14.2626 21.7755 13.2481C21.5125 12.2335 21.025 11.291 20.3491 10.49C19.6732 9.68907 18.826 9.05011 17.8701 8.6203C17.6619 7.4224 17.1834 6.28772 16.4709 5.30247C15.7585 4.31722 14.8308 3.50733 13.7585 2.93433C12.6861 2.36133 11.4972 2.0403 10.2822 1.99563C9.06713 1.95097 7.8579 2.18384 6.74635 2.67656C5.6348 3.16927 4.65018 3.90887 3.86731 4.83915C3.08443 5.76943 2.5239 6.86592 2.22831 8.04529C1.93271 9.22467 1.90982 10.4559 2.16139 11.6455C2.41295 12.835 2.93235 13.9516 3.68011 14.9103L2.29011 16.2903C2.15136 16.4309 2.05736 16.6095 2.01998 16.8035C1.98261 16.9975 2.00353 17.1982 2.08011 17.3803C2.15513 17.5629 2.28253 17.7192 2.44625 17.8296C2.60997 17.9399 2.80269 17.9993 3.00011 18.0003H8.69011C9.25676 19.1949 10.1501 20.2046 11.2669 20.9125C12.3836 21.6204 13.6779 21.9975 15.0001 22.0003H21.0001C21.1975 21.9993 21.3903 21.9399 21.554 21.8296C21.7177 21.7192 21.8451 21.5629 21.9201 21.3803C21.9967 21.1982 22.0176 20.9975 21.9802 20.8035C21.9429 20.6095 21.8489 20.4309 21.7101 20.2903L20.6101 19.1903ZM8.00011 15.0003C8.00149 15.3352 8.02823 15.6695 8.08011 16.0003H5.41011L5.76011 15.6603C5.85384 15.5673 5.92824 15.4567 5.979 15.3349C6.02977 15.213 6.05591 15.0823 6.05591 14.9503C6.05591 14.8183 6.02977 14.6876 5.979 14.5657C5.92824 14.4439 5.85384 14.3333 5.76011 14.2403C5.19967 13.686 4.75536 13.0255 4.45317 12.2975C4.15097 11.5695 3.99695 10.7885 4.00011 10.0003C4.00011 8.409 4.63225 6.88287 5.75747 5.75766C6.88269 4.63244 8.40881 4.0003 10.0001 4.0003C11.2418 3.99284 12.4546 4.37468 13.468 5.09216C14.4815 5.80964 15.2446 6.82667 15.6501 8.0003C15.4301 8.0003 15.2201 8.0003 15.0001 8.0003C13.1436 8.0003 11.3631 8.7378 10.0504 10.0506C8.73761 11.3633 8.00011 13.1438 8.00011 15.0003ZM18.5401 20.0003L18.5901 20.0503H15.0001C13.8435 20.0482 12.7233 19.6452 11.8304 18.9099C10.9376 18.1746 10.3273 17.1525 10.1035 16.0176C9.87973 14.8828 10.0563 13.7055 10.6032 12.6863C11.1501 11.6671 12.0334 10.869 13.1027 10.428C14.172 9.98699 15.3611 9.93035 16.4674 10.2677C17.5738 10.6051 18.529 11.3156 19.1703 12.2782C19.8115 13.2409 20.0992 14.3961 19.9843 15.547C19.8694 16.6979 19.359 17.7734 18.5401 18.5903C18.3517 18.7749 18.2439 19.0265 18.2401 19.2903C18.2407 19.4226 18.2675 19.5535 18.319 19.6754C18.3705 19.7972 18.4456 19.9077 18.5401 20.0003Z" fill="white"/>
</svg>
