<svg width="20" height="20" viewBox="0 0 20 20" fill="none" xmlns="http://www.w3.org/2000/svg">
<path d="M11.1746 9.99991L16.4246 4.75824C16.5815 4.60132 16.6697 4.3885 16.6697 4.16658C16.6697 3.94466 16.5815 3.73183 16.4246 3.57491C16.2677 3.41799 16.0549 3.32983 15.833 3.32983C15.611 3.32983 15.3982 3.41799 15.2413 3.57491L9.99962 8.82491L4.75796 3.57491C4.60104 3.41799 4.38821 3.32983 4.16629 3.32983C3.94437 3.32983 3.73154 3.41799 3.57462 3.57491C3.4177 3.73183 3.32955 3.94466 3.32955 4.16658C3.32955 4.3885 3.4177 4.60132 3.57462 4.75824L8.82462 9.99991L3.57462 15.2416C3.49652 15.319 3.43452 15.4112 3.39221 15.5128C3.34991 15.6143 3.32812 15.7232 3.32812 15.8332C3.32812 15.9433 3.34991 16.0522 3.39221 16.1537C3.43452 16.2553 3.49652 16.3474 3.57462 16.4249C3.65209 16.503 3.74426 16.565 3.84581 16.6073C3.94736 16.6496 4.05628 16.6714 4.16629 16.6714C4.2763 16.6714 4.38522 16.6496 4.48677 16.6073C4.58832 16.565 4.68049 16.503 4.75796 16.4249L9.99962 11.1749L15.2413 16.4249C15.3188 16.503 15.4109 16.565 15.5125 16.6073C15.614 16.6496 15.7229 16.6714 15.833 16.6714C15.943 16.6714 16.0519 16.6496 16.1534 16.6073C16.255 16.565 16.3472 16.503 16.4246 16.4249C16.5027 16.3474 16.5647 16.2553 16.607 16.1537C16.6493 16.0522 16.6711 15.9433 16.6711 15.8332C16.6711 15.7232 16.6493 15.6143 16.607 15.5128C16.5647 15.4112 16.5027 15.319 16.4246 15.2416L11.1746 9.99991Z" fill="white"/>
</svg>
