
<svg width="48" height="46" viewBox="0 0 48 46" fill="none" xmlns="http://www.w3.org/2000/svg">
<path d="M24 0.400391C10.7446 0.400391 0 9.12173 0 19.8815C0 26.8376 4.49308 32.9482 11.25 36.3881C10.8831 37.6925 8.88692 44.784 8.80846 45.3422C8.80846 45.3422 8.76 45.7604 9.02308 45.9196C9.1111 45.9652 9.20725 45.992 9.30567 45.9981C9.40407 46.0044 9.50265 45.9898 9.59539 45.9552C10.3523 45.8459 18.3646 40.061 19.7492 39.0656C21.1577 39.267 22.5781 39.3662 24 39.3626C37.2554 39.3626 48 30.6412 48 19.8815C48 9.12173 37.2554 0.400391 24 0.400391ZM12.1223 16.8572C12.0923 19.613 12.1454 22.5115 12.1015 25.2245C12.0877 26.0916 11.6031 26.3506 10.9477 26.5978C10.8736 26.6246 10.7939 26.6305 10.7169 26.6143C9.96692 26.4623 9.36923 26.1866 9.35077 25.2269C9.29769 22.5162 9.36692 19.613 9.33 16.8572C8.69538 16.831 7.79077 16.8833 7.20231 16.8572C6.38538 16.8025 5.81769 16.268 5.85231 15.4721C5.88692 14.6762 6.3 14.1037 7.21615 14.0894C9.38077 14.0562 12.0623 14.0562 14.2269 14.0894C15.15 14.1037 15.5608 14.6786 15.5885 15.4721C15.6162 16.2656 15.0577 16.8025 14.2431 16.8572C13.6615 16.8833 12.7592 16.831 12.1223 16.8572ZM23.7532 26.4671C23.4762 26.5966 23.1757 26.6639 22.8716 26.6643C22.2947 26.6643 21.8538 26.4266 21.7178 26.0346L21.0255 24.1863H16.8115L16.1192 26.0346C15.9854 26.4218 15.5446 26.6643 14.9654 26.6643C14.662 26.6643 14.3621 26.597 14.0862 26.4671C13.7031 26.2866 13.3362 25.7876 13.7562 24.443L17.0769 15.4674C17.2162 15.072 17.4656 14.7277 17.794 14.4775C18.1224 14.2274 18.5151 14.0824 18.9231 14.0609C19.3307 14.0848 19.7226 14.2308 20.0507 14.4812C20.3788 14.7315 20.6286 15.0751 20.7692 15.4697L24.0785 24.4405C24.5007 25.7876 24.1338 26.2961 23.7532 26.4671ZM30.7499 26.4671H26.3077C25.9636 26.4741 25.6309 26.3405 25.3822 26.0956C25.1335 25.8507 24.9892 25.5146 24.9807 25.1604V15.4864C24.9954 15.1106 25.1509 14.7553 25.4143 14.4948C25.6778 14.2343 26.0289 14.0888 26.3943 14.0888C26.7594 14.0888 27.1106 14.2343 27.374 14.4948C27.6377 14.7553 27.7929 15.1106 27.8077 15.4864V23.8608H30.7499C30.9231 23.85 31.0966 23.8758 31.2596 23.9366C31.4226 23.9974 31.572 24.0921 31.6983 24.2144C31.8246 24.3368 31.9252 24.4844 31.9938 24.6484C32.0627 24.8124 32.0982 24.9891 32.0982 25.1675C32.0982 25.3461 32.0627 25.5228 31.9938 25.6865C31.9252 25.8505 31.8246 25.9981 31.6983 26.1205C31.572 26.2431 31.4226 26.3375 31.2596 26.3983C31.0966 26.4591 30.9231 26.4849 30.7499 26.4741V26.4671ZM41.5961 25.3932C41.5601 25.6744 41.4434 25.9381 41.261 26.1507C41.0786 26.3631 40.8388 26.5149 40.5722 26.5864C40.3054 26.6578 40.0242 26.6457 39.7643 26.5516C39.5044 26.4576 39.2777 26.2858 39.1132 26.0584L35.8662 21.6323L35.3862 22.1265V25.2364C35.3862 25.6145 35.2403 25.9771 34.9806 26.2444C34.721 26.5117 34.3687 26.6618 34.0015 26.6618C33.6343 26.6618 33.2821 26.5117 33.0225 26.2444C32.7628 25.9771 32.6169 25.6145 32.6169 25.2364V15.4959C32.6169 15.1178 32.7628 14.7552 33.0225 14.4879C33.2821 14.2206 33.6343 14.0704 34.0015 14.0704C34.3687 14.0704 34.721 14.2206 34.9806 14.4879C35.2403 14.7552 35.3862 15.1178 35.3862 15.4959V18.5511L39.2492 14.5741C39.3504 14.4711 39.4704 14.39 39.6024 14.3353C39.7342 14.2806 39.8754 14.2536 40.0178 14.2557C40.3634 14.2651 40.6937 14.4056 40.9449 14.6502C41.1962 14.8949 41.3509 15.2265 41.3791 15.5814C41.3917 15.7397 41.3712 15.899 41.319 16.0485C41.2669 16.1981 41.1844 16.3345 41.0769 16.4485L37.9154 19.6962L41.3239 24.3455C41.5446 24.6471 41.64 25.0265 41.5892 25.4004L41.5961 25.3932Z" fill="#331D1E"/>
</svg>