<svg width="20" height="20" viewBox="0 0 20 20" fill="none" xmlns="http://www.w3.org/2000/svg">
<path d="M9.99998 5.83333C10.3296 5.83333 10.6518 5.73559 10.9259 5.55245C11.2 5.36931 11.4136 5.10902 11.5398 4.80447C11.6659 4.49993 11.6989 4.16482 11.6346 3.84152C11.5703 3.51822 11.4116 3.22124 11.1785 2.98816C10.9454 2.75507 10.6484 2.59633 10.3251 2.53203C10.0018 2.46772 9.66672 2.50072 9.36218 2.62687C9.05763 2.75301 8.79733 2.96664 8.6142 3.24072C8.43106 3.5148 8.33331 3.83703 8.33331 4.16667C8.33331 4.60869 8.50891 5.03262 8.82147 5.34518C9.13403 5.65774 9.55795 5.83333 9.99998 5.83333ZM9.99998 14.1667C9.67035 14.1667 9.34811 14.2644 9.07403 14.4476C8.79995 14.6307 8.58633 14.891 8.46018 15.1955C8.33404 15.5001 8.30103 15.8352 8.36534 16.1585C8.42965 16.4818 8.58838 16.7788 8.82147 17.0118C9.05456 17.2449 9.35153 17.4037 9.67483 17.468C9.99813 17.5323 10.3332 17.4993 10.6378 17.3731C10.9423 17.247 11.2026 17.0334 11.3858 16.7593C11.5689 16.4852 11.6666 16.163 11.6666 15.8333C11.6666 15.3913 11.4911 14.9674 11.1785 14.6548C10.8659 14.3423 10.442 14.1667 9.99998 14.1667ZM9.99998 8.33333C9.67035 8.33333 9.34811 8.43108 9.07403 8.61422C8.79995 8.79735 8.58633 9.05765 8.46018 9.3622C8.33404 9.66674 8.30103 10.0018 8.36534 10.3252C8.42965 10.6485 8.58838 10.9454 8.82147 11.1785C9.05456 11.4116 9.35153 11.5703 9.67483 11.6346C9.99813 11.699 10.3332 11.6659 10.6378 11.5398C10.9423 11.4137 11.2026 11.2 11.3858 10.926C11.5689 10.6519 11.6666 10.3296 11.6666 10C11.6666 9.55797 11.4911 9.13405 11.1785 8.82149C10.8659 8.50893 10.442 8.33333 9.99998 8.33333Z" fill="white"/>
</svg>
