<svg width="118" height="36" viewBox="0 0 118 36" fill="none" xmlns="http://www.w3.org/2000/svg">
<g clip-path="url(#clip0_315_1046)">
<mask id="mask0_315_1046" style="mask-type:luminance" maskUnits="userSpaceOnUse" x="0" y="0" width="118" height="36">
<path d="M118 0H0V36H118V0Z" fill="white"/>
</mask>
<g mask="url(#mask0_315_1046)">
<path d="M1.91998 26.0001V3.6001H10.368C11.5947 3.6001 12.704 3.91477 13.696 4.5441C14.6987 5.16277 15.4933 5.99477 16.08 7.0401C16.6667 8.07477 16.96 9.21077 16.96 10.4481C16.96 11.7068 16.656 12.8534 16.048 13.8881C15.4507 14.9228 14.6507 15.7494 13.648 16.3681C12.6453 16.9868 11.552 17.2961 10.368 17.2961H6.71998V26.0001H1.91998ZM6.71998 12.4961H9.82398C10.2507 12.4961 10.64 12.3894 10.992 12.1761C11.344 11.9521 11.6267 11.6588 11.84 11.2961C12.0533 10.9334 12.16 10.5334 12.16 10.0961C12.16 9.65877 12.0533 9.25877 11.84 8.8961C11.6267 8.53343 11.344 8.24543 10.992 8.0321C10.64 7.8081 10.2507 7.6961 9.82398 7.6961H6.71998V12.4961ZM30.2205 10.0001H35.0205V26.0001H30.2045L29.9805 24.5601C29.5858 25.1148 29.0845 25.5628 28.4765 25.9041C27.8792 26.2454 27.1805 26.4161 26.3805 26.4161C25.1858 26.4161 24.0658 26.1921 23.0205 25.7441C21.9858 25.2961 21.0738 24.6774 20.2845 23.8881C19.4952 23.0881 18.8765 22.1708 18.4285 21.1361C17.9912 20.0908 17.7725 18.9708 17.7725 17.7761C17.7725 16.6348 17.9805 15.5681 18.3965 14.5761C18.8125 13.5841 19.3938 12.7148 20.1405 11.9681C20.8978 11.2108 21.7672 10.6188 22.7485 10.1921C23.7405 9.76543 24.8018 9.5521 25.9325 9.5521C26.8498 9.5521 27.6818 9.7441 28.4285 10.1281C29.1858 10.5014 29.8578 10.9708 30.4445 11.5361L30.2205 10.0001ZM26.2525 21.8081C26.9138 21.8081 27.5165 21.6374 28.0605 21.2961C28.6045 20.9548 29.0365 20.4961 29.3565 19.9201C29.6765 19.3441 29.8365 18.7041 29.8365 18.0001C29.8365 17.2961 29.6765 16.6561 29.3565 16.0801C29.0365 15.5041 28.6045 15.0454 28.0605 14.7041C27.5165 14.3628 26.9138 14.1921 26.2525 14.1921C25.5912 14.1921 24.9885 14.3628 24.4445 14.7041C23.9112 15.0454 23.4845 15.5041 23.1645 16.0801C22.8552 16.6561 22.7005 17.2961 22.7005 18.0001C22.7005 18.7041 22.8605 19.3441 23.1805 19.9201C23.5005 20.4961 23.9272 20.9548 24.4605 21.2961C25.0045 21.6374 25.6018 21.8081 26.2525 21.8081ZM38.2485 26.0001L38.2325 10.0001H43.0325L43.0485 11.0081C43.5818 10.5494 44.1898 10.1921 44.8725 9.9361C45.5552 9.6801 46.2752 9.5521 47.0325 9.5521C47.6085 9.5521 48.1952 9.63743 48.7925 9.8081L46.9045 14.6721C46.5312 14.5014 46.1472 14.4161 45.7525 14.4161C45.2512 14.4161 44.7925 14.5388 44.3765 14.7841C43.9712 15.0188 43.6458 15.3441 43.4005 15.7601C43.1658 16.1654 43.0485 16.6188 43.0485 17.1201V26.0001H38.2485ZM59.845 14.8001H57.125V26.0001H52.325V14.8001H50.245V10.0001H52.325V4.9761H57.125V10.0001H59.845V14.8001ZM73.908 10.0001H78.708V26.0001H73.892L73.668 24.5601C73.2733 25.1148 72.772 25.5628 72.164 25.9041C71.5667 26.2454 70.868 26.4161 70.068 26.4161C68.8733 26.4161 67.7533 26.1921 66.708 25.7441C65.6733 25.2961 64.7613 24.6774 63.972 23.8881C63.1827 23.0881 62.564 22.1708 62.116 21.1361C61.6787 20.0908 61.46 18.9708 61.46 17.7761C61.46 16.6348 61.668 15.5681 62.084 14.5761C62.5 13.5841 63.0813 12.7148 63.828 11.9681C64.5853 11.2108 65.4547 10.6188 66.436 10.1921C67.428 9.76543 68.4893 9.5521 69.62 9.5521C70.5373 9.5521 71.3693 9.7441 72.116 10.1281C72.8733 10.5014 73.5453 10.9708 74.132 11.5361L73.908 10.0001ZM69.94 21.8081C70.6013 21.8081 71.204 21.6374 71.748 21.2961C72.292 20.9548 72.724 20.4961 73.044 19.9201C73.364 19.3441 73.524 18.7041 73.524 18.0001C73.524 17.2961 73.364 16.6561 73.044 16.0801C72.724 15.5041 72.292 15.0454 71.748 14.7041C71.204 14.3628 70.6013 14.1921 69.94 14.1921C69.2787 14.1921 68.676 14.3628 68.132 14.7041C67.5987 15.0454 67.172 15.5041 66.852 16.0801C66.5427 16.6561 66.388 17.2961 66.388 18.0001C66.388 18.7041 66.548 19.3441 66.868 19.9201C67.188 20.4961 67.6147 20.9548 68.148 21.2961C68.692 21.6374 69.2893 21.8081 69.94 21.8081ZM93.0315 10.0001H97.8315V26.1601C97.8315 27.3761 97.5862 28.4641 97.0955 29.4241C96.6155 30.3948 95.9542 31.2214 95.1115 31.9041C94.2688 32.5868 93.2982 33.1041 92.1995 33.4561C91.1115 33.8188 89.9595 34.0001 88.7435 34.0001C87.6128 34.0001 86.5302 33.7814 85.4955 33.3441C84.4608 32.9174 83.5382 32.3201 82.7275 31.5521C81.9168 30.7841 81.2768 29.8934 80.8075 28.8801L85.1915 26.8961C85.4155 27.3761 85.7088 27.7814 86.0715 28.1121C86.4342 28.4534 86.8448 28.7148 87.3035 28.8961C87.7622 29.0774 88.2422 29.1681 88.7435 29.1681C89.2982 29.1681 89.8315 29.1094 90.3435 28.9921C90.8555 28.8748 91.3142 28.6934 91.7195 28.4481C92.1248 28.2028 92.4448 27.8881 92.6795 27.5041C92.9142 27.1308 93.0315 26.6828 93.0315 26.1601V24.5921C92.5515 25.1361 91.9808 25.5788 91.3195 25.9201C90.6688 26.2508 89.9168 26.4161 89.0635 26.4161C87.9008 26.4161 86.8128 26.1974 85.7995 25.7601C84.7862 25.3228 83.8902 24.7201 83.1115 23.9521C82.3435 23.1734 81.7408 22.2774 81.3035 21.2641C80.8662 20.2508 80.6475 19.1628 80.6475 18.0001C80.6475 16.8374 80.8662 15.7494 81.3035 14.7361C81.7408 13.7228 82.3435 12.8321 83.1115 12.0641C83.8902 11.2854 84.7862 10.6774 85.7995 10.2401C86.8128 9.80277 87.9008 9.5841 89.0635 9.5841C89.9168 9.5841 90.6688 9.75477 91.3195 10.0961C91.9808 10.4268 92.5515 10.8641 93.0315 11.4081V10.0001ZM89.1275 21.8081C89.7888 21.8081 90.3915 21.6374 90.9355 21.2961C91.4795 20.9548 91.9115 20.4961 92.2315 19.9201C92.5515 19.3441 92.7115 18.7041 92.7115 18.0001C92.7115 17.2961 92.5515 16.6561 92.2315 16.0801C91.9115 15.5041 91.4795 15.0454 90.9355 14.7041C90.3915 14.3628 89.7888 14.1921 89.1275 14.1921C88.4768 14.1921 87.8795 14.3628 87.3355 14.7041C86.8022 15.0454 86.3755 15.5041 86.0555 16.0801C85.7355 16.6561 85.5755 17.2961 85.5755 18.0001C85.5755 18.7041 85.7355 19.3441 86.0555 19.9201C86.3755 20.4961 86.8022 20.9548 87.3355 21.2961C87.8795 21.6374 88.4768 21.8081 89.1275 21.8081ZM108.241 26.4161C106.769 26.4161 105.425 26.0374 104.209 25.2801C103.004 24.5228 102.039 23.5041 101.313 22.2241C100.599 20.9441 100.241 19.5308 100.241 17.9841C100.241 16.8214 100.449 15.7334 100.865 14.7201C101.281 13.6961 101.852 12.8001 102.577 12.0321C103.313 11.2534 104.167 10.6454 105.137 10.2081C106.108 9.77077 107.143 9.5521 108.241 9.5521C109.521 9.5521 110.689 9.83477 111.745 10.4001C112.812 10.9548 113.708 11.7121 114.433 12.6721C115.169 13.6214 115.692 14.6934 116.001 15.8881C116.311 17.0828 116.343 18.3148 116.097 19.5841H105.425C105.575 19.9574 105.772 20.2988 106.017 20.6081C106.273 20.9068 106.583 21.1468 106.945 21.3281C107.319 21.5094 107.751 21.6054 108.241 21.6161C108.711 21.6268 109.143 21.5254 109.537 21.3121C109.943 21.0988 110.295 20.8108 110.593 20.4481L115.489 21.5841C114.839 23.0028 113.868 24.1654 112.577 25.0721C111.287 25.9681 109.841 26.4161 108.241 26.4161ZM105.249 16.0641H111.249C111.1 15.6054 110.876 15.2001 110.577 14.8481C110.279 14.4961 109.927 14.2188 109.521 14.0161C109.127 13.8134 108.7 13.7121 108.241 13.7121C107.793 13.7121 107.367 13.8134 106.961 14.0161C106.567 14.2188 106.22 14.4961 105.921 14.8481C105.633 15.2001 105.409 15.6054 105.249 16.0641Z" fill="#00FFFF"/>
</g>
</g>
<defs>
<clipPath id="clip0_315_1046">
<rect width="118" height="36" fill="white"/>
</clipPath>
</defs>
</svg>
