<svg width="22" height="22" viewBox="0 0 22 22" fill="none" xmlns="http://www.w3.org/2000/svg">
<path d="M13.5758 11.2573C14.156 10.6342 14.4829 9.81703 14.4925 8.96565C14.4925 8.04668 14.1274 7.16534 13.4776 6.51553C12.8278 5.86571 11.9465 5.50065 11.0275 5.50065C10.1085 5.50065 9.22717 5.86571 8.57735 6.51553C7.92754 7.16534 7.56248 8.04668 7.56248 8.96565C7.57204 9.81703 7.89892 10.6342 8.47915 11.2573C7.67125 11.6596 6.97601 12.2564 6.45599 12.9941C5.93596 13.7317 5.60744 14.587 5.49998 15.4831C5.47324 15.7263 5.54417 15.97 5.69716 16.1609C5.85016 16.3517 6.0727 16.4739 6.31581 16.5007C6.55893 16.5274 6.80271 16.4565 6.99353 16.3035C7.18435 16.1505 7.30657 15.9279 7.33331 15.6848C7.4427 14.7967 7.87309 13.9792 8.54339 13.3864C9.2137 12.7936 10.0776 12.4664 10.9725 12.4664C11.8673 12.4664 12.7313 12.7936 13.4016 13.3864C14.0719 13.9792 14.5023 14.7967 14.6116 15.6848C14.6371 15.9199 14.7525 16.136 14.9335 16.288C15.1146 16.44 15.3474 16.5162 15.5833 16.5007H15.6841C15.9244 16.473 16.1441 16.3515 16.2952 16.1626C16.4463 15.9738 16.5166 15.7328 16.4908 15.4923C16.3913 14.6009 16.0732 13.7479 15.5646 13.0091C15.0561 12.2703 14.3729 11.6685 13.5758 11.2573ZM11 10.5973C10.6773 10.5973 10.3618 10.5016 10.0935 10.3223C9.82515 10.143 9.61601 9.88821 9.49252 9.59006C9.36902 9.29191 9.33671 8.96384 9.39966 8.64733C9.46262 8.33082 9.61802 8.04008 9.84622 7.81189C10.0744 7.5837 10.3651 7.42829 10.6817 7.36534C10.9982 7.30238 11.3262 7.33469 11.6244 7.45819C11.9225 7.58168 12.1774 7.79082 12.3567 8.05915C12.5359 8.32747 12.6316 8.64294 12.6316 8.96565C12.6316 9.3984 12.4597 9.81342 12.1537 10.1194C11.8477 10.4254 11.4327 10.5973 11 10.5973ZM17.4166 1.83398H4.58331C3.85397 1.83398 3.15449 2.12372 2.63877 2.63944C2.12304 3.15517 1.83331 3.85464 1.83331 4.58398V17.4173C1.83331 18.1467 2.12304 18.8461 2.63877 19.3619C3.15449 19.8776 3.85397 20.1673 4.58331 20.1673H17.4166C18.146 20.1673 18.8455 19.8776 19.3612 19.3619C19.8769 18.8461 20.1666 18.1467 20.1666 17.4173V4.58398C20.1666 3.85464 19.8769 3.15517 19.3612 2.63944C18.8455 2.12372 18.146 1.83398 17.4166 1.83398ZM18.3333 17.4173C18.3333 17.6604 18.2367 17.8936 18.0648 18.0655C17.8929 18.2374 17.6598 18.334 17.4166 18.334H4.58331C4.3402 18.334 4.10704 18.2374 3.93513 18.0655C3.76322 17.8936 3.66665 17.6604 3.66665 17.4173V4.58398C3.66665 4.34087 3.76322 4.10771 3.93513 3.9358C4.10704 3.76389 4.3402 3.66732 4.58331 3.66732H17.4166C17.6598 3.66732 17.8929 3.76389 18.0648 3.9358C18.2367 4.10771 18.3333 4.34087 18.3333 4.58398V17.4173Z" fill="white"/>
</svg>
