<svg width="22" height="22" viewBox="0 0 22 22" fill="none" xmlns="http://www.w3.org/2000/svg">
<path d="M17.4166 1.83398H4.58331C3.85397 1.83398 3.15449 2.12372 2.63877 2.63944C2.12304 3.15517 1.83331 3.85464 1.83331 4.58398V17.4173C1.83331 18.1467 2.12304 18.8461 2.63877 19.3619C3.15449 19.8776 3.85397 20.1673 4.58331 20.1673H17.4166C18.146 20.1673 18.8455 19.8776 19.3612 19.3619C19.8769 18.8461 20.1666 18.1467 20.1666 17.4173V4.58398C20.1666 3.85464 19.8769 3.15517 19.3612 2.63944C18.8455 2.12372 18.146 1.83398 17.4166 1.83398ZM18.3333 17.4173C18.3333 17.6604 18.2367 17.8936 18.0648 18.0655C17.8929 18.2374 17.6598 18.334 17.4166 18.334H4.58331C4.3402 18.334 4.10704 18.2374 3.93513 18.0655C3.76322 17.8936 3.66665 17.6604 3.66665 17.4173V4.58398C3.66665 4.34087 3.76322 4.10771 3.93513 3.9358C4.10704 3.76389 4.3402 3.66732 4.58331 3.66732H17.4166C17.6598 3.66732 17.8929 3.76389 18.0648 3.9358C18.2367 4.10771 18.3333 4.34087 18.3333 4.58398V17.4173Z" fill="white"/>
<path d="M10.2391 14.154C10.273 14.106 10.3097 14.06 10.3491 14.0165C10.4343 13.9306 10.5357 13.8624 10.6474 13.8158C10.7591 13.7693 10.879 13.7453 11 13.7453C11.121 13.7453 11.2408 13.7693 11.3525 13.8158C11.4642 13.8624 11.5656 13.9306 11.6508 14.0165C11.7358 14.1021 11.803 14.2037 11.8486 14.3154C11.8942 14.4271 11.9173 14.5467 11.9166 14.6673C11.921 14.7859 11.9023 14.9042 11.8616 15.0157C11.8205 15.1294 11.7548 15.2327 11.6692 15.3183C11.5837 15.4038 11.4804 15.4695 11.3666 15.5107C11.2569 15.5591 11.1383 15.5842 11.0183 15.5842C10.8983 15.5842 10.7797 15.5591 10.67 15.5107C10.5562 15.4695 10.4529 15.4038 10.3674 15.3183C10.2818 15.2327 10.2161 15.1294 10.175 15.0157C10.1236 14.9069 10.0985 14.7876 10.1016 14.6673C10.0971 14.6063 10.0971 14.545 10.1016 14.484C10.1117 14.4266 10.1302 14.3709 10.1566 14.319C10.1767 14.2606 10.2044 14.2051 10.2391 14.154Z" fill="white"/>
<path d="M9.62396 6.78531C10.0424 6.54393 10.5169 6.41701 11 6.41732C11.6449 6.42232 12.2675 6.65383 12.759 7.07137C13.2506 7.48892 13.5797 8.06593 13.6889 8.70155C13.7981 9.33717 13.6805 9.99095 13.3565 10.5486C13.0325 11.1063 12.5229 11.5323 11.9166 11.7523V11.9173C11.9166 12.1604 11.8201 12.3936 11.6481 12.5655C11.4762 12.7374 11.2431 12.834 11 12.834C10.7568 12.834 10.5237 12.7374 10.3518 12.5655C10.1799 12.3936 10.0833 12.1604 10.0833 11.9173V11.0007C10.0833 10.7575 10.1799 10.5244 10.3518 10.3525C10.5237 10.1806 10.7568 10.084 11 10.084C11.2431 10.084 11.4762 9.98741 11.6481 9.8155C11.8201 9.64359 11.9166 9.41043 11.9166 9.16732C11.9166 8.9242 11.8201 8.69105 11.6481 8.51914C11.4762 8.34723 11.2431 8.25065 11 8.25065C10.8384 8.25001 10.6796 8.29206 10.5396 8.37255C10.3995 8.45303 10.2832 8.5691 10.2025 8.70898C10.1452 8.81853 10.0663 8.91535 9.97059 8.99363C9.87489 9.0719 9.76436 9.13001 9.64562 9.16446C9.52689 9.1989 9.40241 9.20897 9.27968 9.19407C9.15696 9.17916 9.03851 9.13958 8.93148 9.07771C8.82444 9.01584 8.73103 8.93296 8.65686 8.83405C8.58268 8.73514 8.52928 8.62225 8.49987 8.50217C8.47046 8.38209 8.46564 8.2573 8.4857 8.13531C8.50577 8.01332 8.5503 7.89665 8.61663 7.79232C8.85814 7.37401 9.20557 7.02669 9.62396 6.78531Z" fill="white"/>
</svg>
