<svg width="28" height="28" viewBox="0 0 28 28" fill="none" xmlns="http://www.w3.org/2000/svg">
<path d="M25.3283 23.6713L21 19.378C22.6801 17.2831 23.4938 14.6242 23.2736 11.9478C23.0535 9.2715 21.8163 6.78122 19.8165 4.98906C17.8166 3.1969 15.2061 2.23907 12.5218 2.31253C9.83739 2.38598 7.28319 3.48513 5.38434 5.38398C3.4855 7.28282 2.38635 9.83702 2.31289 12.5214C2.23944 15.2058 3.19727 17.8162 4.98943 19.8161C6.78159 21.8159 9.27186 23.0531 11.9482 23.2733C14.6245 23.4934 17.2835 22.6798 19.3783 20.9996L23.6717 25.293C23.7801 25.4023 23.9092 25.4891 24.0513 25.5484C24.1935 25.6076 24.346 25.6381 24.5 25.6381C24.654 25.6381 24.8065 25.6076 24.9487 25.5484C25.0909 25.4891 25.2199 25.4023 25.3283 25.293C25.5386 25.0754 25.6562 24.7847 25.6562 24.4821C25.6562 24.1796 25.5386 23.8889 25.3283 23.6713ZM12.8333 20.9996C11.2181 20.9996 9.63919 20.5207 8.29619 19.6233C6.95319 18.726 5.90644 17.4505 5.28833 15.9582C4.67021 14.466 4.50848 12.8239 4.8236 11.2397C5.13871 9.65556 5.91651 8.2004 7.05864 7.05827C8.20077 5.91614 9.65593 5.13834 11.2401 4.82323C12.8243 4.50812 14.4663 4.66985 15.9586 5.28796C17.4509 5.90608 18.7263 6.95282 19.6237 8.29582C20.521 9.63882 21 11.2178 21 12.833C21 14.9989 20.1396 17.0761 18.608 18.6077C17.0765 20.1392 14.9993 20.9996 12.8333 20.9996Z" fill="#00FFFF"/>
</svg>
