<svg width="16" height="17" viewBox="0 0 16 17" fill="none" xmlns="http://www.w3.org/2000/svg">
<path d="M8.19984 8.64732C8.55556 8.33941 8.84087 7.95857 9.03642 7.53067C9.23197 7.10276 9.33318 6.63779 9.33317 6.16732C9.33317 5.28326 8.98198 4.43542 8.35686 3.8103C7.73174 3.18517 6.88389 2.83398 5.99984 2.83398C5.11578 2.83398 4.26794 3.18517 3.64281 3.8103C3.01769 4.43542 2.6665 5.28326 2.6665 6.16732C2.6665 6.63779 2.76771 7.10276 2.96325 7.53067C3.1588 7.95857 3.44412 8.33941 3.79984 8.64732C2.8666 9.06991 2.07481 9.75234 1.51916 10.613C0.963501 11.4737 0.667485 12.4762 0.666504 13.5007C0.666504 13.6775 0.736742 13.847 0.861766 13.9721C0.98679 14.0971 1.15636 14.1673 1.33317 14.1673C1.50998 14.1673 1.67955 14.0971 1.80458 13.9721C1.9296 13.847 1.99984 13.6775 1.99984 13.5007C1.99984 12.4398 2.42126 11.4224 3.17141 10.6722C3.92156 9.92208 4.93897 9.50065 5.99984 9.50065C7.0607 9.50065 8.07812 9.92208 8.82826 10.6722C9.57841 11.4224 9.99984 12.4398 9.99984 13.5007C9.99984 13.6775 10.0701 13.847 10.1951 13.9721C10.3201 14.0971 10.4897 14.1673 10.6665 14.1673C10.8433 14.1673 11.0129 14.0971 11.1379 13.9721C11.2629 13.847 11.3332 13.6775 11.3332 13.5007C11.3322 12.4762 11.0362 11.4737 10.4805 10.613C9.92486 9.75234 9.13308 9.06991 8.19984 8.64732ZM5.99984 8.16732C5.60427 8.16732 5.2176 8.05002 4.8887 7.83026C4.5598 7.61049 4.30345 7.29814 4.15208 6.93268C4.0007 6.56723 3.9611 6.1651 4.03827 5.77714C4.11544 5.38917 4.30592 5.03281 4.58562 4.7531C4.86533 4.4734 5.22169 4.28292 5.60966 4.20575C5.99762 4.12858 6.39975 4.16818 6.7652 4.31956C7.13066 4.47093 7.44301 4.72728 7.66278 5.05618C7.88254 5.38508 7.99984 5.77175 7.99984 6.16732C7.99984 6.69775 7.78912 7.20646 7.41405 7.58153C7.03898 7.9566 6.53027 8.16732 5.99984 8.16732ZM12.4932 8.38065C12.9198 7.9002 13.1985 7.30669 13.2957 6.67154C13.3929 6.0364 13.3045 5.3867 13.041 4.80065C12.7776 4.2146 12.3504 3.71718 11.8108 3.36827C11.2713 3.01935 10.6424 2.83381 9.99984 2.83398C9.82303 2.83398 9.65346 2.90422 9.52843 3.02925C9.40341 3.15427 9.33317 3.32384 9.33317 3.50065C9.33317 3.67746 9.40341 3.84703 9.52843 3.97206C9.65346 4.09708 9.82303 4.16732 9.99984 4.16732C10.5303 4.16732 11.039 4.37803 11.4141 4.7531C11.7891 5.12818 11.9998 5.63688 11.9998 6.16732C11.9989 6.51748 11.906 6.86125 11.7305 7.16427C11.5551 7.46728 11.3031 7.7189 10.9998 7.89398C10.901 7.951 10.8184 8.03243 10.7601 8.13048C10.7017 8.22853 10.6695 8.33992 10.6665 8.45398C10.6637 8.56716 10.6898 8.67918 10.7423 8.77949C10.7948 8.8798 10.8719 8.96509 10.9665 9.02732L11.2265 9.20065L11.3132 9.24732C12.1168 9.62846 12.7947 10.2313 13.2672 10.9849C13.7396 11.7384 13.9869 12.6113 13.9798 13.5007C13.9798 13.6775 14.0501 13.847 14.1751 13.9721C14.3001 14.0971 14.4697 14.1673 14.6465 14.1673C14.8233 14.1673 14.9929 14.0971 15.1179 13.9721C15.2429 13.847 15.3132 13.6775 15.3132 13.5007C15.3186 12.4776 15.0624 11.4702 14.5688 10.574C14.0752 9.6779 13.3607 8.92286 12.4932 8.38065Z" fill="#9FA6B2"/>
</svg>
